<?xml version="1.0" encoding="UTF-8" standalone="no"?>
<!DOCTYPE svg PUBLIC "-//W3C//DTD SVG 1.1//EN" "http://www.w3.org/Graphics/SVG/1.1/DTD/svg11.dtd">
<svg width="100%" height="100%" viewBox="0 0 512 512" version="1.1" xmlns="http://www.w3.org/2000/svg" xmlns:xlink="http://www.w3.org/1999/xlink" xml:space="preserve" xmlns:serif="http://www.serif.com/" style="fill-rule:evenodd;clip-rule:evenodd;stroke-linejoin:round;stroke-miterlimit:2;">
    <g transform="matrix(1.99821,0,0,2,-511.084,-512)">
        <path d="M512,304.488C512,277.727 490.254,256 463.469,256L304.302,256C277.517,256 255.771,277.727 255.771,304.488L255.771,463.512C255.771,490.273 277.517,512 304.302,512L463.469,512C490.254,512 512,490.273 512,463.512L512,304.488Z" style="fill:white;"/>
    </g>
    <g transform="matrix(1.22728,0,0,1.22728,-58.1317,-58.213)">
        <g transform="matrix(0.0601246,0,0,-0.0601246,101.99,409.97)">
            <path d="M2890,5114C2486,5084 2070,4922 1750,4669C1601,4552 1406,4337 1302,4175C979,3676 889,3098 1044,2516C1077,2391 1138,2239 1211,2102C1246,2034 1270,1976 1270,1957C1270,1929 1210,1865 702,1355C230,883 126,773 91,714C9,574 -16,449 14,331C34,254 58,212 123,143C282,-27 484,-44 714,91C773,126 883,230 1355,702C1865,1210 1929,1270 1957,1270C1976,1270 2034,1246 2102,1211C2392,1058 2668,984 2985,973C3425,958 3808,1064 4175,1302C4337,1406 4552,1601 4669,1750C4899,2041 5045,2387 5101,2775C5120,2902 5117,3218 5096,3349C5034,3742 4880,4084 4632,4380C4311,4765 3854,5019 3350,5095C3246,5111 2990,5121 2890,5114ZM3295,4555C3525,4519 3758,4421 3952,4279C4057,4201 4218,4038 4294,3932C4677,3394 4667,2650 4270,2122C3970,1723 3477,1490 2986,1513C2584,1532 2238,1683 1960,1960C1357,2564 1361,3539 1971,4137C2324,4483 2797,4632 3295,4555Z" style="fill:rgb(25,104,255);fill-rule:nonzero;"/>
        </g>
        <g transform="matrix(0.0601246,0,0,-0.0601246,101.99,409.97)">
            <path d="M2987,4279C2524,4228 2121,3939 1916,3510C1861,3396 1868,3305 1938,3234C2000,3172 2107,3152 2178,3190C2240,3223 2256,3241 2315,3349C2386,3480 2443,3554 2530,3629C2797,3859 3144,3918 3483,3792C3577,3757 3653,3767 3717,3823C3805,3900 3815,4045 3737,4128C3692,4176 3543,4233 3383,4264C3277,4284 3096,4291 2987,4279Z" style="fill:rgb(25,104,255);fill-rule:nonzero;"/>
        </g>
    </g>
</svg>
