<?xml version="1.0" encoding="UTF-8" standalone="no"?>
<!DOCTYPE svg PUBLIC "-//W3C//DTD SVG 1.1//EN" "http://www.w3.org/Graphics/SVG/1.1/DTD/svg11.dtd">
<svg width="100%" height="100%" viewBox="0 0 1024 1024" version="1.1" xmlns="http://www.w3.org/2000/svg" xmlns:xlink="http://www.w3.org/1999/xlink" xml:space="preserve" xmlns:serif="http://www.serif.com/" style="fill-rule:evenodd;clip-rule:evenodd;stroke-linejoin:round;stroke-miterlimit:2;">
    <path d="M73.342,218.9C74.143,259.697 59.262,339.874 79.922,394.785C102.748,455.452 198.604,465.838 210.294,582.902C216.908,649.138 83.27,801.667 151.429,846.771C219.587,891.874 402.347,788.46 470.031,772.057C538.094,755.563 590.348,809.38 604.904,865.259C616.207,908.644 674.025,981.859 750.959,986.664C827.893,991.469 943.979,959.095 964.081,891.847C983.747,826.06 938.752,524.014 917.766,479.47C886.966,414.096 851.212,356.767 774.112,366.777C697.011,376.788 644.499,500.684 583.684,512C522.87,523.316 412.981,510.98 406.203,425.728C399.425,340.475 410.72,241.201 447.449,190.661C512.833,100.69 399.409,51.52 373.513,50.319C328.474,48.23 210.134,173.289 160.105,201.386C134.38,215.834 72.54,178.103 73.342,218.9Z" style="fill:rgb(140,140,140);"/>
</svg>
