<?xml version="1.0" encoding="UTF-8" standalone="no"?>
<!DOCTYPE svg PUBLIC "-//W3C//DTD SVG 1.1//EN" "http://www.w3.org/Graphics/SVG/1.1/DTD/svg11.dtd">
<svg width="100%" height="100%" viewBox="0 0 500 300" version="1.1" xmlns="http://www.w3.org/2000/svg" xmlns:xlink="http://www.w3.org/1999/xlink" xml:space="preserve" xmlns:serif="http://www.serif.com/" style="fill-rule:evenodd;clip-rule:evenodd;stroke-linejoin:round;stroke-miterlimit:2;">
    <g transform="matrix(5.05827,0,0,5.05827,-899.893,-312.263)">
        <path d="M194.37,73.187L201.377,73.187L200.059,79.535L193.052,79.535L194.37,73.187ZM192.32,83.05L199.326,83.05L193.906,108.978L186.9,108.978L192.32,83.05Z" style="fill-rule:nonzero;"/>
        <path d="M227.891,108.978L221.299,108.978L220.029,92.474L212.119,108.978L205.625,108.978L202.378,83.05L208.604,83.05L210.41,100.433L218.491,83.05L224.863,83.05L225.742,100.433L233.775,83.05L240.806,83.05L227.891,108.978Z" style="fill-rule:nonzero;"/>
        <path d="M239.487,108.978L246.958,73.187L253.989,73.187L251.475,85.15C252.761,84.173 253.961,83.477 255.076,83.062C256.191,82.647 257.407,82.44 258.726,82.44C261.46,82.44 263.649,83.355 265.293,85.186C266.937,87.018 267.759,89.683 267.759,93.182C267.759,95.542 267.372,97.833 266.599,100.055C265.826,102.276 264.793,104.083 263.499,105.475C262.205,106.866 260.846,107.9 259.422,108.575C257.997,109.251 256.504,109.588 254.942,109.588C251.231,109.588 248.504,107.961 246.763,104.706L245.86,108.978L239.487,108.978ZM248.936,98.407C248.936,100.148 249.428,101.564 250.413,102.655C251.397,103.745 252.557,104.29 253.892,104.29C255.064,104.29 256.183,103.867 257.249,103.021C258.315,102.175 259.202,100.824 259.91,98.968C260.618,97.113 260.972,95.241 260.972,93.353C260.972,91.514 260.496,90.069 259.544,89.019C258.591,87.97 257.44,87.445 256.089,87.445C254.331,87.445 252.818,88.259 251.548,89.886C249.806,92.116 248.936,94.956 248.936,98.407Z" style="fill-rule:nonzero;"/>
    </g>
</svg>
